<svg xmlns="http://www.w3.org/2000/svg" xmlns:xlink="http://www.w3.org/1999/xlink" id="svg">
<symbol  viewbox="0 0 125 25" id="fasa-icon">
<path fill-rule="evenodd"  fill="rgb(23, 23, 23)"
 d="M123.621,6.442 C121.917,10.855 120.217,15.269 118.502,19.678 C118.138,20.616 117.706,21.521 117.069,22.315 C116.408,23.138 115.547,23.624 114.559,23.840 C113.780,24.009 112.973,24.109 112.177,24.122 C108.994,24.175 105.810,24.180 102.626,24.206 C100.104,24.226 97.582,24.249 95.060,24.274 C92.128,24.303 89.195,24.342 86.262,24.364 C84.381,24.377 82.499,24.366 80.565,24.366 C80.802,23.227 81.038,22.091 81.274,20.960 C81.327,20.949 81.360,20.937 81.393,20.936 C83.458,20.912 85.524,20.880 87.589,20.866 C91.789,20.837 95.989,20.822 100.189,20.793 C103.235,20.771 106.282,20.737 109.329,20.704 C109.820,20.699 110.310,20.664 110.800,20.658 C111.952,20.644 112.817,20.001 113.150,18.885 C113.178,18.790 113.150,18.658 113.106,18.563 C112.047,16.259 110.980,13.959 109.919,11.656 C108.981,9.622 108.050,7.586 107.116,5.550 C107.080,5.470 107.052,5.386 107.006,5.268 C107.163,5.268 107.285,5.269 107.407,5.268 C109.108,5.250 110.808,5.241 112.508,5.203 C112.809,5.196 112.925,5.304 113.015,5.569 C113.953,8.330 114.900,11.089 115.846,13.847 C115.871,13.920 115.901,13.992 115.952,14.124 C116.847,11.117 117.725,8.166 118.615,5.175 C120.429,5.175 122.241,5.175 124.095,5.175 C123.938,5.594 123.784,6.020 123.621,6.442 ZM107.959,10.737 C107.992,11.873 107.963,13.010 107.974,14.147 C107.988,15.728 107.804,17.342 108.738,18.816 C108.576,18.829 108.480,18.842 108.384,18.842 C106.844,18.843 105.303,18.838 103.762,18.849 C103.540,18.850 103.397,18.796 103.314,18.583 C103.154,18.170 102.987,17.761 102.809,17.316 C102.569,17.495 102.285,17.710 101.998,17.922 C101.003,18.655 99.873,19.014 98.665,19.114 C97.896,19.177 97.117,19.227 96.349,19.178 C94.803,19.079 93.399,18.586 92.513,17.193 C91.402,15.445 91.966,12.840 94.229,11.948 C95.252,11.545 96.315,11.332 97.382,11.116 C98.989,10.792 100.605,10.505 102.153,9.935 C102.378,9.853 102.487,9.790 102.443,9.486 C102.321,8.626 101.959,8.218 101.113,8.197 C100.530,8.182 99.939,8.194 99.361,8.271 C98.693,8.361 98.158,8.702 97.872,9.365 C97.810,9.509 97.732,9.647 97.669,9.773 C95.890,9.612 94.134,9.452 92.370,9.293 C92.708,7.313 93.879,6.115 95.704,5.555 C97.292,5.068 98.933,5.010 100.579,5.051 C101.329,5.069 102.081,5.077 102.830,5.135 C104.041,5.229 105.210,5.469 106.225,6.228 C107.076,6.864 107.536,7.743 107.753,8.750 C107.892,9.397 107.940,10.072 107.959,10.737 ZM102.486,12.491 C101.867,12.668 101.292,12.819 100.727,13.000 C99.908,13.262 99.082,13.511 98.285,13.833 C97.803,14.028 97.526,14.470 97.572,15.017 C97.620,15.587 97.920,16.045 98.497,16.137 C99.044,16.224 99.626,16.272 100.166,16.177 C100.955,16.038 101.665,15.658 102.121,14.938 C102.592,14.194 102.501,13.353 102.486,12.491 ZM90.430,17.003 C89.579,18.151 88.440,18.867 87.064,19.163 C85.542,19.491 84.053,19.370 82.654,18.629 C82.227,18.403 81.841,18.100 81.407,17.813 C81.245,18.492 81.081,19.174 80.921,19.856 C80.592,21.265 80.258,22.672 79.943,24.084 C79.883,24.354 79.769,24.422 79.506,24.420 C78.092,24.405 76.677,24.407 75.262,24.415 C74.703,24.419 74.145,24.454 73.586,24.470 C73.512,24.473 73.437,24.450 73.336,24.435 C73.666,23.090 74.029,21.779 74.304,20.451 C74.650,18.783 75.573,17.388 76.274,15.889 C77.295,13.707 78.340,11.538 79.352,9.352 C79.642,8.725 79.749,8.044 79.714,7.342 C79.674,6.554 79.218,6.086 78.581,5.746 C78.473,5.689 78.360,5.642 78.249,5.590 C78.256,5.553 78.262,5.515 78.268,5.477 C79.076,5.477 79.885,5.483 80.693,5.475 C80.914,5.472 80.923,5.599 80.922,5.765 C80.918,6.299 80.920,6.832 80.920,7.421 C81.004,7.344 81.061,7.302 81.104,7.249 C82.098,6.038 83.345,5.342 84.909,5.187 C86.147,5.065 87.319,5.225 88.419,5.806 C89.903,6.591 90.732,7.920 91.259,9.474 C91.737,10.882 91.762,12.332 91.610,13.798 C91.487,14.973 91.132,16.056 90.430,17.003 ZM85.839,10.480 C85.206,8.774 83.054,8.481 81.929,9.914 C81.404,10.584 81.370,11.392 81.313,12.276 C81.336,12.485 81.368,12.770 81.399,13.056 C81.487,13.842 81.773,14.525 82.435,14.984 C83.635,15.815 85.315,15.500 85.845,14.024 C86.265,12.857 86.270,11.640 85.839,10.480 ZM76.627,11.341 C75.400,13.883 74.130,16.404 72.864,18.928 C72.808,19.041 72.635,19.159 72.511,19.166 C70.267,19.291 68.023,19.400 65.715,19.515 C64.076,19.429 62.379,19.353 60.684,19.239 C60.236,19.209 59.783,19.100 59.354,18.960 C58.189,18.583 57.670,17.547 58.106,16.330 C58.870,14.198 60.293,12.690 62.466,11.964 C63.841,11.503 65.250,11.208 66.699,11.120 C68.668,11.001 70.637,10.891 72.607,10.774 C72.868,10.758 73.136,10.755 73.386,10.689 C73.581,10.637 73.805,10.537 73.923,10.385 C74.208,10.019 74.487,9.632 74.680,9.211 C74.937,8.650 74.736,8.170 74.154,7.971 C73.698,7.815 73.205,7.713 72.724,7.696 C71.064,7.636 69.432,7.902 67.820,8.264 C66.986,8.452 66.459,9.061 66.214,9.857 C66.054,10.375 65.731,10.573 65.254,10.616 C64.557,10.679 63.865,10.652 63.206,10.379 C62.799,10.211 62.762,10.110 62.898,9.700 C63.613,7.553 65.115,6.314 67.281,5.814 C69.284,5.351 71.309,5.185 73.354,5.317 C74.249,5.375 75.141,5.495 76.029,5.620 C76.291,5.656 76.552,5.776 76.786,5.908 C77.762,6.456 77.940,7.179 77.819,8.160 C77.675,9.315 77.120,10.322 76.627,11.341 ZM68.558,12.220 C67.711,12.193 67.067,12.575 66.585,13.245 C66.333,13.598 66.150,14.004 66.356,14.431 C66.468,14.662 66.405,14.805 66.303,14.987 C65.676,16.112 65.054,17.241 64.400,18.424 C65.551,18.424 66.645,18.429 67.738,18.414 C67.821,18.413 67.959,18.271 67.974,18.180 C68.128,17.187 68.268,16.191 68.400,15.194 C68.445,14.855 68.572,14.605 68.847,14.367 C69.109,14.140 69.313,13.800 69.437,13.469 C69.682,12.814 69.254,12.243 68.558,12.220 ZM60.145,9.025 C59.080,9.132 58.014,9.228 56.948,9.329 C56.440,9.377 55.931,9.425 55.489,9.467 C55.409,9.153 55.414,8.815 55.250,8.621 C55.069,8.408 54.745,8.256 54.462,8.207 C53.688,8.075 52.907,8.106 52.214,8.533 C51.942,8.700 51.693,8.947 51.510,9.211 C51.263,9.570 51.377,9.898 51.798,10.013 C52.377,10.169 52.974,10.255 53.565,10.364 C54.714,10.576 55.876,10.731 57.009,11.006 C57.806,11.200 58.466,11.666 58.701,12.539 C58.873,13.176 58.752,13.789 58.487,14.375 C57.846,15.793 56.759,16.811 55.483,17.629 C53.943,18.615 52.235,19.124 50.424,19.326 C49.013,19.483 47.599,19.526 46.190,19.373 C45.440,19.292 44.681,19.140 43.969,18.895 C42.817,18.500 42.243,17.380 42.469,16.180 C42.591,15.533 42.588,15.507 43.225,15.437 C44.356,15.313 45.492,15.223 46.626,15.119 C47.192,15.067 47.758,15.017 48.329,14.965 C48.343,15.243 48.339,15.470 48.368,15.694 C48.425,16.128 48.686,16.403 49.099,16.503 C50.352,16.806 51.514,16.602 52.549,15.808 C52.698,15.694 52.818,15.525 52.913,15.360 C53.171,14.906 53.064,14.575 52.565,14.429 C51.979,14.257 51.374,14.148 50.776,14.014 C49.647,13.761 48.502,13.568 47.394,13.244 C46.117,12.872 45.579,11.767 45.977,10.493 C46.445,8.998 47.469,7.946 48.743,7.117 C50.195,6.172 51.802,5.656 53.517,5.552 C54.892,5.469 56.274,5.452 57.649,5.495 C58.272,5.514 58.914,5.676 59.500,5.898 C60.462,6.262 60.909,7.043 60.925,8.070 C60.929,8.345 61.004,8.686 60.872,8.872 C60.766,9.022 60.399,8.999 60.145,9.025 ZM44.658,10.567 C43.674,12.487 42.645,14.384 41.631,16.289 C41.156,17.182 40.726,18.089 40.794,19.195 C39.053,19.195 37.338,19.195 35.533,19.195 C35.603,18.702 35.674,18.193 35.736,17.755 C34.911,18.135 34.060,18.605 33.156,18.928 C31.351,19.573 29.482,19.795 27.580,19.451 C26.677,19.288 25.899,18.909 25.631,17.917 C25.469,17.318 25.579,16.737 25.832,16.181 C26.722,14.229 28.231,12.965 30.253,12.378 C31.590,11.991 32.974,11.771 34.335,11.467 C35.939,11.107 37.542,10.742 39.144,10.369 C39.482,10.290 39.782,9.696 39.763,9.226 C39.746,8.818 39.437,8.698 39.136,8.669 C37.918,8.550 36.718,8.601 35.662,9.336 C35.356,9.550 35.098,9.834 34.807,10.073 C34.720,10.144 34.591,10.218 34.489,10.209 C33.025,10.081 31.563,9.941 30.101,9.801 C29.976,9.789 29.854,9.757 29.686,9.727 C30.710,8.326 31.952,7.267 33.503,6.582 C34.692,6.057 35.945,5.820 37.226,5.675 C38.774,5.500 40.324,5.508 41.873,5.621 C42.471,5.664 43.076,5.746 43.655,5.897 C45.115,6.276 45.704,7.272 45.331,8.747 C45.173,9.372 44.951,9.995 44.658,10.567 ZM35.709,13.487 C34.803,13.736 33.891,13.975 33.010,14.295 C32.374,14.526 31.882,14.984 31.654,15.660 C31.490,16.148 31.666,16.530 32.162,16.626 C32.558,16.703 32.986,16.742 33.381,16.678 C35.609,16.318 37.136,15.056 37.976,12.927 C37.202,13.117 36.451,13.283 35.709,13.487 ZM33.299,3.671 C33.158,3.873 33.002,3.907 32.782,3.889 C32.317,3.850 31.851,3.820 31.385,3.809 C30.606,3.791 29.997,4.140 29.548,4.759 C29.289,5.114 29.080,5.506 28.817,5.934 C29.728,5.934 30.564,5.934 31.448,5.934 C31.373,6.095 31.321,6.218 31.259,6.335 C30.718,7.354 30.168,8.368 29.638,9.392 C29.529,9.603 29.413,9.690 29.172,9.687 C28.498,9.678 27.825,9.711 27.152,9.705 C26.912,9.702 26.786,9.790 26.676,9.998 C25.082,13.017 23.479,16.032 21.886,19.052 C21.769,19.276 21.649,19.354 21.389,19.332 C19.617,19.181 17.844,19.048 16.071,18.916 C14.435,18.793 12.798,18.680 11.161,18.557 C9.331,18.420 7.502,18.277 5.673,18.135 C5.655,18.133 5.638,18.117 5.548,18.068 C5.828,18.054 6.038,18.038 6.249,18.036 C9.696,18.005 13.143,17.973 16.591,17.952 C16.837,17.950 16.970,17.886 17.089,17.658 C17.869,16.158 18.668,14.669 19.460,13.176 C19.517,13.067 19.569,12.955 19.643,12.803 C13.187,12.121 6.765,11.444 0.343,10.767 C0.343,10.748 0.343,10.728 0.344,10.710 C0.447,10.710 0.551,10.710 0.654,10.710 C7.275,10.660 13.896,10.609 20.517,10.566 C20.768,10.564 20.920,10.498 21.009,10.258 C21.069,10.100 21.166,9.956 21.272,9.757 C17.177,9.077 13.111,8.401 9.044,7.725 C9.045,7.696 9.046,7.667 9.047,7.638 C10.161,7.638 11.275,7.643 12.389,7.637 C14.889,7.624 17.389,7.598 19.889,7.595 C20.237,7.595 20.460,7.519 20.593,7.171 C20.707,6.874 20.905,6.611 21.035,6.320 C21.137,6.092 21.270,5.997 21.527,6.006 C21.960,6.023 22.396,5.969 22.827,6.001 C23.220,6.029 23.417,5.864 23.515,5.459 C17.165,4.788 10.820,4.119 4.475,3.450 C4.475,3.433 4.475,3.417 4.475,3.401 C4.627,3.401 4.780,3.403 4.932,3.401 C11.404,3.343 17.876,3.275 24.349,3.243 C24.951,3.241 25.291,2.989 25.615,2.508 C20.402,1.957 15.212,1.409 10.023,0.860 C10.023,0.843 10.023,0.825 10.023,0.807 C10.066,0.804 10.109,0.798 10.152,0.797 C17.080,0.704 24.008,0.595 30.937,0.530 C32.389,0.516 33.843,0.665 35.403,0.744 C35.134,1.120 34.940,1.395 34.743,1.668 C34.260,2.335 33.768,2.994 33.299,3.671 Z"/>
  </symbol>

<symbol width="106px" height="21px" id="sticpay-icon">
<path fill-rule="evenodd"  fill="rgb(23, 23, 23)"
 d="M104.103,3.274 C102.176,6.150 100.214,9.007 98.330,11.905 C97.890,12.582 97.609,13.372 97.426,14.141 C96.980,16.024 96.612,17.923 96.259,19.822 C96.139,20.466 95.845,20.740 95.070,20.701 C93.953,20.645 92.829,20.687 91.708,20.681 C90.604,20.676 90.588,20.664 90.787,19.668 C91.172,17.746 91.636,15.835 91.929,13.903 C92.062,13.029 92.000,12.090 91.790,11.225 C90.995,7.959 90.100,4.712 89.251,1.457 C89.171,1.150 89.144,0.832 89.069,0.380 C90.863,0.380 92.494,0.357 94.122,0.408 C94.329,0.415 94.654,0.791 94.697,1.027 C95.035,2.875 95.315,4.730 95.618,6.582 C95.656,6.817 95.722,7.049 95.837,7.553 C96.426,6.544 96.903,5.743 97.363,4.935 C98.110,3.621 98.861,2.309 99.577,0.983 C99.817,0.539 100.128,0.355 100.695,0.365 C102.383,0.393 104.072,0.375 106.000,0.375 C105.297,1.451 104.711,2.369 104.103,3.274 ZM85.137,20.693 C83.987,20.650 82.834,20.666 81.683,20.693 C81.101,20.706 80.854,20.505 80.849,19.996 C80.841,19.194 80.781,18.392 80.781,17.590 C80.781,17.124 80.603,16.909 80.043,16.916 C78.498,16.936 76.951,16.897 75.408,16.950 C75.113,16.961 74.702,17.236 74.570,17.482 C74.130,18.301 73.812,19.172 73.402,20.005 C73.281,20.251 73.016,20.620 72.805,20.626 C71.094,20.677 69.380,20.655 67.442,20.655 C68.162,19.197 68.770,17.950 69.392,16.708 C72.026,11.452 74.673,6.201 77.285,0.936 C77.515,0.471 77.825,0.368 78.324,0.371 C80.112,0.383 81.901,0.399 83.688,0.363 C84.359,0.349 84.585,0.566 84.628,1.136 C84.928,5.059 85.255,8.979 85.574,12.901 C85.760,15.194 85.922,17.490 86.148,19.781 C86.220,20.516 85.922,20.723 85.137,20.693 ZM80.268,5.048 C80.221,5.042 80.175,5.035 80.128,5.028 C79.046,7.459 77.964,9.891 76.841,12.414 C78.161,12.414 79.273,12.414 80.559,12.414 C80.460,9.907 80.364,7.478 80.268,5.048 ZM61.322,13.977 C60.337,13.997 60.026,14.297 59.896,15.094 C59.635,16.707 59.248,18.303 58.960,19.913 C58.853,20.508 58.560,20.744 57.876,20.692 C57.274,20.646 56.665,20.682 56.059,20.682 C55.454,20.682 54.846,20.659 54.242,20.687 C53.559,20.720 53.336,20.527 53.474,19.891 C54.125,16.899 54.731,13.899 55.352,10.902 C56.022,7.669 56.713,4.439 57.343,1.199 C57.466,0.566 57.734,0.346 58.451,0.364 C59.995,0.403 61.541,0.362 63.085,0.379 C67.717,0.429 70.375,3.014 70.008,7.096 C69.614,11.486 66.650,13.872 61.322,13.977 ZM64.469,6.021 C64.177,5.240 63.512,4.826 62.605,4.922 C62.387,4.945 62.047,5.122 62.013,5.273 C61.711,6.603 61.467,7.942 61.196,9.327 C63.495,9.594 65.147,7.833 64.469,6.021 ZM53.438,5.539 C53.216,6.061 52.952,6.202 52.368,5.866 C51.790,5.533 51.163,5.240 50.514,5.033 C48.123,4.268 46.473,4.737 45.167,6.665 C43.533,9.081 43.113,11.731 43.702,14.475 C43.983,15.785 45.030,16.483 46.533,16.323 C47.836,16.184 49.105,15.789 50.385,15.495 C50.663,15.431 50.925,15.313 51.378,15.157 C51.378,16.674 51.393,18.049 51.359,19.424 C51.355,19.581 51.116,19.802 50.927,19.877 C48.376,20.901 45.723,21.324 42.972,20.680 C40.394,20.078 38.894,18.430 38.356,16.244 C37.267,11.829 37.993,7.600 40.793,3.778 C43.436,0.170 48.532,-0.974 53.086,0.867 C55.229,1.732 55.230,1.733 54.349,3.616 C54.048,4.258 53.714,4.889 53.438,5.539 ZM34.739,15.549 C34.429,17.021 34.112,18.491 33.838,19.968 C33.735,20.525 33.463,20.749 32.814,20.700 C32.182,20.652 31.542,20.689 30.906,20.689 C30.300,20.688 29.692,20.660 29.089,20.695 C28.311,20.741 28.174,20.449 28.306,19.824 C29.603,13.649 30.890,7.472 32.140,1.290 C32.288,0.558 32.617,0.317 33.445,0.359 C34.653,0.420 35.868,0.395 37.079,0.366 C37.742,0.351 37.922,0.552 37.798,1.128 C36.765,5.933 35.753,10.742 34.739,15.549 ZM29.008,4.933 C28.072,4.982 27.131,4.980 26.193,4.949 C25.597,4.929 25.359,5.115 25.253,5.647 C24.330,10.279 23.369,14.905 22.431,19.535 C22.196,20.695 22.216,20.696 20.888,20.691 C19.858,20.688 18.827,20.658 17.799,20.698 C17.012,20.729 16.717,20.561 16.883,19.791 C17.623,16.352 18.304,12.902 19.005,9.457 C19.261,8.194 19.497,6.928 19.775,5.668 C19.891,5.143 19.731,4.924 19.101,4.945 C18.254,4.974 17.404,4.933 16.557,4.961 C15.882,4.983 15.610,4.785 15.760,4.159 C16.016,3.087 16.197,2.001 16.472,0.934 C16.527,0.721 16.866,0.408 17.075,0.406 C21.496,0.384 25.917,0.399 30.339,0.411 C30.392,0.411 30.445,0.454 30.657,0.546 C30.370,1.883 30.109,3.221 29.767,4.543 C29.721,4.720 29.279,4.918 29.008,4.933 ZM13.228,5.743 C12.447,5.442 11.801,5.159 11.126,4.944 C10.618,4.784 10.079,4.681 9.543,4.609 C8.851,4.515 8.175,4.610 7.768,5.175 C7.343,5.766 7.326,6.463 7.807,6.989 C8.579,7.835 9.454,8.615 10.349,9.365 C13.446,11.963 13.772,16.544 10.869,19.120 C10.059,19.838 8.879,20.362 7.761,20.653 C5.393,21.269 3.027,21.060 0.783,20.066 C0.242,19.827 -0.023,19.519 -0.002,18.945 C0.045,17.613 0.013,16.279 0.013,14.780 C0.467,14.964 0.768,15.110 1.086,15.211 C2.333,15.605 3.568,16.040 4.841,16.353 C5.710,16.566 6.547,16.347 7.079,15.635 C7.522,15.041 7.357,14.197 6.644,13.500 C5.812,12.687 4.891,11.945 4.072,11.123 C1.701,8.743 1.361,5.360 3.205,2.782 C4.520,0.945 6.526,0.173 8.880,0.069 C10.819,-0.017 12.664,0.391 14.390,1.201 C14.863,1.423 15.073,1.646 14.835,2.145 C14.276,3.318 13.774,4.512 13.228,5.743 Z"/>
</symbol>
<symbol width="123px" height="31px" id="pm-icon">
<path fill-rule="evenodd"  fill="rgb(23, 23, 23)"
 d="M116.755,12.072 C113.400,12.144 110.583,9.311 110.597,6.016 C110.612,2.709 113.425,-0.017 116.805,0.001 C120.167,0.017 122.993,2.795 122.925,6.094 C122.860,9.223 120.487,11.992 116.755,12.072 ZM115.031,3.626 C114.425,3.561 113.807,3.612 113.118,3.612 C113.118,4.715 113.121,5.749 113.116,6.783 C113.114,7.224 113.251,7.723 112.670,7.997 C113.189,7.997 113.708,7.997 114.361,7.997 C113.448,7.387 113.876,6.658 113.813,5.945 C114.209,5.965 114.474,6.009 114.733,5.985 C115.399,5.925 115.814,5.407 115.854,4.677 C115.886,4.083 115.614,3.690 115.031,3.626 ZM119.517,7.976 C120.036,7.976 120.548,7.976 121.200,7.976 C120.409,7.399 120.402,4.571 121.047,3.698 C120.111,3.472 120.030,3.512 119.678,4.330 C119.345,5.103 119.005,5.873 118.668,6.645 C118.602,6.651 118.535,6.656 118.468,6.662 C118.113,5.859 117.746,5.061 117.406,4.252 C117.105,3.537 116.882,3.440 116.077,3.734 C116.735,4.507 116.748,7.200 116.084,7.972 C116.506,7.972 116.915,7.972 117.476,7.972 C116.829,7.521 116.655,6.169 117.038,5.170 C117.423,6.039 117.766,6.827 118.123,7.609 C118.189,7.752 118.315,7.869 118.413,7.999 C118.523,7.863 118.667,7.740 118.735,7.586 C119.095,6.770 119.436,5.946 119.784,5.125 C119.859,5.147 119.935,5.169 120.010,5.191 C119.801,6.091 120.406,7.100 119.517,7.976 ZM113.864,5.662 C113.647,4.440 113.774,3.974 114.314,3.929 C114.796,3.889 115.231,4.316 115.226,4.825 C115.220,5.465 114.819,5.718 113.864,5.662 ZM112.186,19.526 C112.169,19.695 111.729,19.931 111.473,19.948 C110.164,20.033 108.850,20.062 107.539,20.100 C107.033,20.115 106.527,20.102 105.976,20.102 C106.029,22.077 106.791,23.253 108.247,23.785 C109.155,24.116 109.899,23.708 110.652,23.310 C110.838,23.212 110.991,23.020 111.185,22.970 C111.392,22.917 111.665,22.917 111.837,23.018 C111.928,23.072 111.902,23.397 111.868,23.588 C111.778,24.090 111.452,24.391 111.002,24.612 C109.759,25.221 108.440,25.435 107.101,25.206 C105.316,24.900 104.219,23.760 103.791,21.989 C103.365,20.228 103.386,18.474 104.298,16.876 C105.101,15.468 106.433,14.781 108.021,14.642 C109.464,14.515 110.720,14.895 111.560,16.186 C112.224,17.204 112.299,18.363 112.186,19.526 ZM109.637,17.105 C109.383,16.354 108.843,15.867 108.081,15.756 C107.409,15.657 106.925,16.092 106.565,16.620 C106.094,17.312 105.984,18.104 105.985,19.018 C106.781,19.018 107.537,19.018 108.293,19.018 C110.083,19.018 110.221,18.829 109.637,17.105 ZM100.092,25.002 C99.620,25.007 99.689,24.707 99.693,24.391 C99.721,22.334 99.767,20.277 99.740,18.220 C99.726,17.105 98.825,16.219 97.874,16.240 C96.911,16.261 95.897,17.206 95.872,18.214 C95.828,19.949 95.853,21.686 95.848,23.423 C95.846,23.925 96.094,24.173 96.590,24.173 C96.739,24.173 96.915,24.129 97.029,24.194 C97.180,24.280 97.378,24.454 97.378,24.589 C97.377,24.724 97.158,24.973 97.031,24.976 C95.481,25.003 93.930,25.004 92.380,24.977 C92.268,24.975 92.069,24.700 92.077,24.562 C92.085,24.426 92.293,24.213 92.436,24.191 C93.565,24.020 93.595,24.011 93.602,22.838 C93.613,20.949 93.615,19.061 93.607,17.172 C93.604,16.297 93.543,16.257 92.704,16.231 C92.439,16.222 92.084,16.367 92.044,15.867 C92.006,15.404 92.331,15.434 92.609,15.356 C93.381,15.138 94.149,14.905 94.918,14.679 C95.536,14.497 95.764,14.667 95.792,15.321 C95.798,15.464 95.823,15.606 95.857,15.901 C96.266,15.547 96.545,15.252 96.873,15.030 C98.014,14.258 100.332,14.569 101.245,15.597 C101.867,16.297 102.005,17.160 102.013,18.052 C102.026,19.725 102.011,21.399 102.021,23.073 C102.027,23.991 102.124,24.061 103.017,24.194 C103.194,24.220 103.338,24.470 103.497,24.618 C103.339,24.744 103.184,24.976 103.022,24.981 C102.046,25.016 101.068,24.992 100.092,25.002 ZM82.547,22.832 C81.705,20.943 81.739,17.650 83.362,16.061 C84.400,15.044 85.618,14.596 87.120,14.631 C89.434,14.492 91.351,16.091 91.633,18.553 C91.896,20.854 91.520,22.943 89.519,24.377 C87.426,25.878 83.824,25.696 82.547,22.832 ZM86.712,15.757 C85.788,15.711 85.087,16.308 84.778,17.177 C84.002,19.361 84.258,21.467 85.613,23.336 C86.167,24.102 87.131,24.407 87.967,23.921 C88.964,23.343 89.238,22.036 89.338,20.970 C89.353,20.811 89.363,20.639 89.367,20.458 C89.404,18.621 88.817,15.862 86.712,15.757 ZM80.664,10.822 C79.659,10.867 79.601,10.918 79.499,11.930 C79.469,12.228 79.452,12.530 79.454,12.830 C79.478,16.264 79.493,19.699 79.540,23.133 C79.552,23.964 79.785,24.145 80.581,24.176 C80.887,24.188 81.269,24.101 81.242,24.621 C81.217,25.097 80.851,24.994 80.576,24.996 C79.067,25.005 77.558,25.002 76.049,24.998 C75.786,24.997 75.480,25.072 75.461,24.622 C75.441,24.152 75.734,24.181 76.044,24.172 C76.805,24.148 77.022,23.962 77.029,23.234 C77.056,20.464 77.065,17.694 77.074,14.925 C77.075,14.769 77.023,14.614 76.996,14.459 C76.952,14.453 76.909,14.447 76.865,14.442 C76.404,15.507 75.929,16.567 75.485,17.640 C74.514,19.988 73.558,22.341 72.600,24.693 C72.466,25.021 72.345,25.279 71.891,25.276 C71.434,25.274 71.318,24.994 71.182,24.677 C69.827,21.518 68.474,18.357 67.116,15.199 C67.035,15.009 66.924,14.832 66.698,14.662 C66.677,14.833 66.638,15.005 66.639,15.177 C66.651,17.603 66.666,20.028 66.687,22.454 C66.690,22.732 66.744,23.009 66.756,23.287 C66.783,23.945 67.170,24.173 67.761,24.173 C67.867,24.173 68.002,24.135 68.074,24.186 C68.222,24.291 68.433,24.441 68.437,24.577 C68.440,24.713 68.224,24.974 68.100,24.976 C66.656,25.005 65.210,25.005 63.765,24.976 C63.652,24.974 63.472,24.708 63.456,24.551 C63.444,24.440 63.634,24.263 63.773,24.191 C63.891,24.129 64.064,24.177 64.212,24.173 C64.712,24.159 65.008,23.915 65.047,23.398 C65.099,22.714 65.186,22.029 65.185,21.344 C65.184,18.167 65.171,14.991 65.133,11.814 C65.123,11.053 64.855,10.848 64.097,10.823 C64.012,10.820 63.898,10.856 63.847,10.814 C63.695,10.689 63.500,10.551 63.459,10.383 C63.436,10.291 63.686,10.019 63.818,10.016 C64.943,9.986 66.071,9.970 67.195,10.025 C67.400,10.034 67.671,10.343 67.773,10.575 C68.831,13.003 69.856,15.446 70.901,17.881 C71.335,18.892 71.794,19.894 72.312,21.059 C72.555,20.562 72.745,20.219 72.896,19.859 C74.204,16.748 75.507,13.635 76.805,10.519 C76.950,10.170 77.139,9.974 77.560,9.986 C78.579,10.017 79.600,9.993 80.620,9.999 C80.912,10.000 81.249,9.948 81.245,10.420 C81.241,10.847 80.940,10.809 80.664,10.822 ZM57.298,16.752 C56.873,16.753 56.449,16.761 56.025,16.770 C55.986,16.771 55.948,16.798 55.866,16.831 C55.852,16.974 55.822,17.138 55.822,17.301 C55.826,18.910 55.830,20.519 55.846,22.128 C55.848,22.382 55.867,22.649 55.947,22.886 C56.178,23.575 56.639,23.726 57.247,23.346 C57.353,23.279 57.464,23.166 57.572,23.168 C57.750,23.169 57.998,23.192 58.085,23.307 C58.191,23.448 58.237,23.721 58.177,23.888 C57.798,24.945 56.722,25.445 55.320,25.253 C54.304,25.113 53.647,24.420 53.617,23.260 C53.569,21.373 53.606,19.485 53.607,17.598 C53.607,17.345 53.607,17.093 53.607,16.749 C53.199,16.749 52.900,16.779 52.611,16.737 C52.454,16.715 52.193,16.568 52.194,16.481 C52.197,16.302 52.323,15.984 52.435,15.967 C53.770,15.764 53.671,14.802 53.587,13.836 C53.579,13.751 53.580,13.664 53.578,13.579 C53.546,12.026 53.620,11.914 55.040,11.349 C55.608,11.122 55.919,11.368 55.912,12.002 C55.899,13.095 55.908,14.187 55.908,15.402 C56.675,15.402 57.506,15.402 58.318,15.402 C58.475,16.688 58.422,16.749 57.298,16.752 ZM51.434,17.906 C50.558,18.213 50.398,18.093 50.258,17.208 C50.214,16.932 50.019,16.598 49.791,16.448 C48.226,15.411 46.502,16.182 46.099,18.042 C45.786,19.485 45.950,20.853 46.617,22.159 C47.462,23.813 48.816,24.270 50.474,23.482 C50.859,23.298 51.386,23.045 51.589,23.531 C51.694,23.779 51.357,24.416 51.054,24.606 C49.552,25.542 46.548,25.628 45.262,24.250 C44.730,23.679 44.252,22.950 44.035,22.208 C43.565,20.598 43.517,18.936 44.328,17.390 C45.192,15.744 46.711,14.969 48.424,14.678 C49.247,14.538 50.142,14.775 50.996,14.899 C51.549,14.980 51.828,15.265 51.656,15.933 C51.494,16.568 51.501,17.246 51.434,17.906 ZM42.297,19.950 C40.732,20.030 39.164,20.058 37.598,20.101 C37.349,20.108 37.100,20.102 36.853,20.102 C36.830,21.999 37.646,23.270 39.141,23.797 C40.023,24.108 40.753,23.711 41.489,23.326 C41.676,23.228 41.826,23.035 42.019,22.980 C42.226,22.921 42.521,22.894 42.669,23.004 C42.777,23.084 42.795,23.463 42.702,23.611 C42.476,23.968 42.222,24.386 41.871,24.569 C40.361,25.360 38.747,25.541 37.129,24.982 C35.935,24.570 35.131,23.639 34.769,22.448 C34.191,20.550 34.155,18.612 35.172,16.843 C36.553,14.440 40.521,13.728 42.218,15.902 C43.067,16.989 43.159,18.264 43.042,19.563 C43.028,19.719 42.562,19.937 42.297,19.950 ZM40.236,16.648 C39.566,15.557 38.415,15.336 37.485,16.529 C36.950,17.214 36.867,18.051 36.828,18.970 C37.083,18.989 37.269,19.016 37.455,19.017 C38.429,19.018 39.404,19.029 40.377,18.993 C40.508,18.989 40.754,18.714 40.734,18.604 C40.612,17.939 40.573,17.196 40.236,16.648 ZM33.479,11.175 C33.380,11.159 33.293,11.077 33.198,11.029 C32.563,10.707 32.031,10.856 31.852,11.543 C31.666,12.258 31.625,13.016 31.564,13.759 C31.523,14.269 31.557,14.785 31.557,15.410 C32.222,15.410 32.851,15.420 33.480,15.407 C33.868,15.398 34.107,15.519 34.045,15.958 C33.994,16.320 34.083,16.776 33.475,16.755 C32.865,16.734 32.252,16.751 31.554,16.751 C31.554,17.199 31.551,17.577 31.554,17.956 C31.565,19.631 31.569,21.306 31.593,22.981 C31.609,24.054 31.727,24.159 32.775,24.175 C32.860,24.176 32.976,24.140 33.024,24.183 C33.170,24.312 33.361,24.457 33.393,24.623 C33.412,24.720 33.164,24.980 33.033,24.982 C31.397,25.006 29.759,25.006 28.123,24.980 C27.999,24.977 27.760,24.699 27.784,24.602 C27.825,24.438 28.019,24.213 28.172,24.192 C29.239,24.050 29.306,24.012 29.322,22.942 C29.349,21.074 29.356,19.205 29.368,17.337 C29.369,17.170 29.346,17.003 29.329,16.751 C29.001,16.751 28.744,16.778 28.496,16.741 C28.338,16.716 28.071,16.596 28.069,16.515 C28.066,16.334 28.170,16.013 28.280,15.990 C29.452,15.740 29.414,14.876 29.378,13.962 C29.336,12.927 29.739,12.032 30.393,11.258 C30.820,10.753 31.280,10.276 31.741,9.802 C32.397,9.127 33.234,9.162 34.066,9.263 C34.200,9.279 34.411,9.503 34.412,9.632 C34.418,10.178 34.359,10.724 34.323,11.270 C34.042,11.240 33.758,11.220 33.479,11.175 ZM27.190,17.726 C26.923,17.763 26.544,17.742 26.378,17.575 C26.064,17.260 25.936,16.650 25.340,16.855 C24.668,17.086 24.231,17.634 24.202,18.350 C24.135,20.018 24.133,21.688 24.122,23.358 C24.118,23.919 24.494,24.128 24.990,24.170 C25.180,24.186 25.394,24.127 25.557,24.198 C25.711,24.265 25.913,24.458 25.910,24.593 C25.907,24.729 25.688,24.962 25.548,24.975 C25.021,25.022 24.488,24.999 23.957,25.000 C22.895,25.001 21.832,24.983 20.771,25.007 C20.231,25.019 20.006,24.842 20.190,24.290 C20.226,24.267 20.259,24.231 20.297,24.224 C21.902,23.918 21.776,24.161 21.838,22.487 C21.902,20.753 21.884,19.013 21.816,17.279 C21.777,16.267 21.702,16.272 20.703,16.233 C20.537,16.227 20.372,16.195 20.175,16.172 C20.175,15.933 20.175,15.728 20.175,15.554 C21.209,15.250 22.215,14.934 23.234,14.664 C23.827,14.507 23.969,14.658 23.984,15.303 C23.989,15.509 24.006,15.715 24.028,16.107 C24.363,15.739 24.564,15.524 24.758,15.303 C25.422,14.543 26.298,14.556 27.167,14.692 C27.346,14.720 27.586,15.110 27.593,15.340 C27.612,15.957 27.539,16.581 27.462,17.196 C27.438,17.391 27.306,17.711 27.190,17.726 ZM19.088,19.950 C17.523,20.030 15.956,20.058 14.389,20.101 C14.140,20.108 13.890,20.102 13.644,20.102 C13.588,21.957 14.424,23.257 15.915,23.797 C16.651,24.063 17.288,23.799 17.927,23.508 C18.194,23.386 18.417,23.154 18.689,23.054 C18.926,22.967 19.204,22.996 19.464,22.973 C19.469,23.206 19.513,23.447 19.471,23.671 C19.330,24.433 18.675,24.600 18.087,24.833 C16.738,25.366 15.347,25.486 13.982,24.999 C12.335,24.411 11.547,23.064 11.292,21.400 C11.068,19.942 11.106,18.465 11.790,17.126 C12.579,15.581 13.948,14.815 15.628,14.645 C16.932,14.513 18.123,14.800 18.995,15.897 C19.853,16.977 19.942,18.256 19.826,19.554 C19.812,19.713 19.351,19.936 19.088,19.950 ZM17.283,17.115 C17.033,16.363 16.495,15.874 15.734,15.757 C15.062,15.654 14.577,16.085 14.213,16.611 C13.736,17.302 13.630,18.097 13.624,19.018 C14.414,19.018 15.170,19.018 15.925,19.018 C17.732,19.018 17.858,18.848 17.283,17.115 ZM6.867,18.017 C5.663,18.105 4.448,18.042 3.237,18.043 C3.014,18.043 2.792,18.043 2.569,18.043 C2.569,18.105 2.568,18.167 2.567,18.229 C3.148,18.229 3.730,18.229 4.432,18.229 C4.432,19.385 4.427,20.452 4.435,21.519 C4.438,21.969 4.459,22.420 4.491,22.869 C4.555,23.746 4.720,23.876 5.590,23.929 C5.843,23.945 6.226,24.049 6.308,24.226 C6.530,24.702 6.296,24.993 5.757,24.996 C4.078,25.005 2.400,24.994 0.722,25.004 C0.328,25.007 0.148,24.887 0.147,24.452 C0.146,24.002 0.355,23.920 0.734,23.911 C1.874,23.883 1.981,23.793 2.020,22.617 C2.063,21.309 2.042,19.998 2.067,18.690 C2.072,18.411 2.157,18.135 2.215,17.798 C1.523,17.674 0.765,17.538 0.006,17.401 C0.004,17.335 0.002,17.269 -0.000,17.203 C1.506,17.116 3.012,17.020 4.518,16.948 C5.069,16.922 5.624,16.930 6.175,16.960 C8.100,17.067 9.280,15.538 9.054,13.524 C8.804,11.296 6.610,10.652 4.775,11.374 C4.618,11.436 4.496,11.784 4.487,12.004 C4.433,13.333 4.416,14.663 4.388,15.993 C4.383,16.222 4.387,16.451 4.387,16.741 C3.593,16.741 2.881,16.741 2.095,16.741 C2.084,16.532 2.064,16.305 2.062,16.077 C2.053,14.832 2.079,13.586 2.032,12.343 C1.994,11.336 1.734,11.111 0.749,11.085 C0.384,11.076 0.152,11.024 0.146,10.561 C0.140,10.076 0.364,9.990 0.770,9.992 C3.170,10.001 5.572,9.979 7.972,10.003 C9.663,10.019 11.048,10.888 11.461,12.122 C12.139,14.150 11.143,16.615 9.192,17.487 C8.477,17.806 7.653,17.961 6.867,18.017 ZM113.850,14.894 C114.785,14.893 115.721,14.886 116.656,14.899 C116.945,14.904 117.334,14.777 117.328,15.321 C117.323,15.819 116.965,15.720 116.695,15.713 C116.161,15.699 115.891,15.935 116.066,16.453 C116.664,18.229 117.300,19.993 117.921,21.761 C118.000,21.773 118.080,21.786 118.159,21.798 C118.377,21.282 118.618,20.775 118.808,20.249 C119.236,19.063 119.628,17.864 120.056,16.677 C120.224,16.211 120.132,15.937 119.622,15.853 C119.455,15.826 119.252,15.814 119.140,15.712 C119.009,15.593 118.910,15.387 118.897,15.211 C118.890,15.117 119.092,14.920 119.203,14.918 C120.371,14.895 121.540,14.894 122.709,14.916 C122.813,14.918 122.979,15.115 122.999,15.240 C123.020,15.376 122.915,15.654 122.842,15.662 C121.897,15.769 121.721,16.580 121.453,17.246 C119.884,21.151 118.341,25.066 116.805,28.984 C116.468,29.845 115.908,30.549 115.095,30.862 C114.541,31.075 113.828,31.003 113.219,30.886 C112.858,30.816 112.588,30.406 112.765,29.916 C112.860,29.655 112.930,29.384 112.993,29.112 C113.133,28.508 113.642,28.314 114.031,28.790 C114.582,29.464 115.071,29.347 115.458,28.603 C115.978,27.605 116.416,26.552 116.766,25.481 C116.876,25.142 116.625,24.659 116.480,24.265 C115.587,21.838 114.679,19.417 113.774,16.995 C113.542,16.375 113.368,15.704 112.515,15.664 C112.434,15.659 112.285,15.392 112.311,15.281 C112.344,15.137 112.512,14.939 112.641,14.923 C113.039,14.873 113.446,14.895 113.850,14.894 Z"/>
</symbol>
<symbol width="124px" height="22px" id="neteller-icon">
<path fill-rule="evenodd"  fill="rgb(23, 23, 23)"
 d="M102.421,16.843 C103.114,13.015 103.793,9.266 104.470,5.516 C104.756,3.930 105.051,2.346 105.313,0.755 C105.402,0.211 105.614,-0.005 106.189,0.009 C109.448,0.089 112.711,0.082 115.969,0.198 C117.697,0.259 119.355,0.759 120.792,1.779 C122.757,3.172 123.461,5.779 122.741,8.523 C122.000,11.341 120.055,12.697 117.258,13.242 C118.307,16.133 119.341,18.979 120.430,21.978 C119.327,21.978 118.366,21.979 117.405,21.977 C116.300,21.975 115.193,21.931 114.090,21.980 C113.502,22.006 113.261,21.797 113.103,21.231 C112.258,18.209 111.375,15.198 110.503,12.185 C110.468,12.061 110.404,11.945 110.282,11.662 C109.725,14.811 109.193,17.791 108.673,20.774 C108.463,21.978 108.476,21.978 107.308,21.978 C86.256,21.977 65.204,21.976 44.152,21.975 C43.735,21.975 43.317,21.975 42.746,21.975 C43.763,16.322 44.762,10.765 45.783,5.090 C44.605,5.090 43.483,5.069 42.365,5.114 C42.207,5.120 41.963,5.431 41.926,5.633 C41.044,10.441 40.173,15.252 39.326,20.067 C38.990,21.971 39.019,21.978 37.113,21.978 C29.718,21.978 22.324,21.966 14.929,21.995 C14.205,21.998 13.879,21.781 13.647,21.070 C12.349,17.093 10.999,13.135 9.666,9.171 C9.608,8.999 9.545,8.828 9.422,8.481 C8.921,11.354 8.451,14.039 7.984,16.726 C7.709,18.313 7.448,19.903 7.149,21.485 C7.114,21.668 6.872,21.946 6.724,21.948 C4.523,21.978 2.322,21.969 0.005,21.969 C0.204,20.857 0.382,19.864 0.560,18.871 C1.646,12.817 2.736,6.763 3.808,0.706 C3.894,0.218 4.072,0.009 4.571,0.013 C6.623,0.031 8.676,0.032 10.728,0.007 C11.179,0.001 11.381,0.177 11.526,0.590 C12.691,3.904 13.873,7.212 15.050,10.521 C15.337,11.328 15.626,12.135 15.997,13.172 C16.208,12.045 16.390,11.119 16.553,10.188 C17.107,7.042 17.669,3.897 18.192,0.744 C18.299,0.098 18.630,0.011 19.170,0.013 C23.459,0.026 27.748,0.017 32.038,0.017 C41.090,0.017 50.143,0.017 59.195,0.017 C59.530,0.017 59.865,0.017 60.321,0.017 C60.008,1.760 59.716,3.386 59.415,5.060 C57.191,5.060 55.013,5.060 52.734,5.060 C52.519,6.299 52.309,7.500 52.079,8.821 C54.239,8.821 56.301,8.821 58.479,8.821 C58.235,10.254 58.032,11.570 57.759,12.871 C57.729,13.015 57.295,13.150 57.047,13.153 C55.363,13.178 53.678,13.198 51.995,13.151 C51.411,13.134 51.199,13.357 51.122,13.895 C50.987,14.850 50.822,15.801 50.658,16.820 C50.909,16.846 51.109,16.884 51.308,16.884 C54.334,16.888 57.361,16.867 60.386,16.903 C61.054,16.911 61.266,16.691 61.382,16.024 C62.268,10.944 63.204,5.873 64.114,0.798 C64.205,0.288 64.360,0.000 64.959,0.011 C67.058,0.048 69.158,0.025 71.401,0.025 C70.430,5.388 69.477,10.652 68.507,16.013 C70.007,16.013 71.421,16.029 72.833,15.989 C72.987,15.984 73.228,15.663 73.266,15.457 C73.764,12.791 74.231,10.117 74.709,7.447 C75.121,5.145 75.529,2.843 75.970,0.547 C76.008,0.349 76.284,0.053 76.453,0.050 C78.656,0.017 80.859,0.028 83.193,0.028 C82.225,5.376 81.277,10.616 80.315,15.936 C81.902,15.936 83.457,15.936 85.106,15.936 C86.057,10.679 87.011,5.403 87.975,0.077 C92.477,0.077 96.937,0.077 101.509,0.077 C101.294,1.321 101.097,2.525 100.875,3.726 C100.621,5.093 100.610,5.093 99.278,5.093 C97.752,5.093 96.225,5.109 94.699,5.077 C94.184,5.066 93.936,5.217 93.866,5.763 C93.744,6.716 93.565,7.662 93.386,8.754 C95.530,8.754 97.586,8.754 99.741,8.754 C99.482,10.292 99.247,11.683 99.000,13.151 C96.835,13.151 94.717,13.151 92.554,13.151 C92.338,14.410 92.134,15.591 91.918,16.843 C95.437,16.843 98.893,16.843 102.421,16.843 ZM30.417,8.763 C30.144,10.328 29.902,11.716 29.646,13.182 C27.385,13.182 25.191,13.182 22.973,13.182 C22.748,14.440 22.540,15.613 22.331,16.780 C22.516,16.841 22.589,16.885 22.662,16.885 C25.868,16.888 29.075,16.901 32.281,16.856 C32.514,16.853 32.895,16.455 32.947,16.187 C33.509,13.263 34.023,10.328 34.541,7.395 C34.674,6.647 34.778,5.893 34.894,5.147 C31.350,5.147 27.893,5.147 24.417,5.147 C24.227,6.348 24.045,7.495 23.844,8.763 C26.102,8.763 28.191,8.763 30.417,8.763 ZM110.563,10.202 C111.954,10.385 113.197,10.329 114.388,9.836 C115.601,9.333 116.284,7.909 115.988,6.592 C115.713,5.368 114.868,4.761 113.264,4.631 C111.632,4.500 111.614,4.497 111.297,6.093 C111.033,7.428 110.816,8.773 110.563,10.202 Z"/>
</symbol>
<symbol width="51px" height="38px" id="mc-icon">
<path fill-rule="evenodd"  fill="rgb(0, 0, 0)"
 d="M34.400,29.399 C31.237,29.399 28.322,28.368 25.946,26.638 C29.209,23.951 31.307,19.865 31.307,15.270 C31.307,10.513 29.072,6.289 25.612,3.610 C28.045,1.730 31.087,0.599 34.400,0.599 C42.353,0.599 48.800,7.047 48.800,14.999 C48.800,22.952 42.353,29.399 34.400,29.399 ZM24.800,26.939 C21.333,24.260 19.093,20.031 19.093,15.270 C19.093,10.508 21.333,6.278 24.800,3.600 C28.267,6.278 30.507,10.508 30.507,15.270 C30.507,20.031 28.267,24.260 24.800,26.939 ZM23.654,26.638 C21.278,28.368 18.363,29.399 15.200,29.399 C7.247,29.399 0.800,22.952 0.800,14.999 C0.800,7.047 7.247,0.599 15.200,0.599 C18.513,0.599 21.555,1.730 23.988,3.610 C20.528,6.289 18.293,10.513 18.293,15.270 C18.293,19.865 20.391,23.951 23.654,26.638 ZM4.926,33.738 C4.937,33.748 4.948,33.759 4.958,33.769 C5.267,33.349 5.674,33.196 6.158,33.226 C6.644,33.255 7.018,33.478 7.291,33.909 C7.314,33.888 7.334,33.876 7.347,33.857 C7.805,33.224 8.428,33.113 9.110,33.293 C9.721,33.454 10.073,33.919 10.104,34.560 C10.148,35.458 10.115,36.359 10.115,37.277 C9.838,37.277 9.580,37.277 9.296,37.277 C9.296,37.206 9.296,37.140 9.296,37.073 C9.296,36.424 9.296,35.774 9.295,35.125 C9.295,35.024 9.298,34.922 9.285,34.823 C9.215,34.294 8.938,34.028 8.465,34.027 C7.967,34.026 7.624,34.324 7.555,34.834 C7.532,35.001 7.528,35.172 7.527,35.342 C7.524,35.979 7.526,36.615 7.526,37.267 C7.252,37.267 6.986,37.267 6.698,37.267 C6.698,37.197 6.698,37.129 6.698,37.062 C6.698,36.425 6.699,35.788 6.697,35.151 C6.697,35.025 6.700,34.897 6.680,34.774 C6.594,34.252 6.298,34.004 5.802,34.028 C5.329,34.050 4.974,34.389 4.959,34.887 C4.937,35.605 4.947,36.324 4.944,37.043 C4.943,37.118 4.944,37.192 4.944,37.273 C4.660,37.273 4.399,37.273 4.128,37.273 C4.128,35.953 4.128,34.645 4.128,33.326 C4.394,33.326 4.649,33.326 4.926,33.326 C4.926,33.469 4.926,33.603 4.926,33.738 ZM11.949,33.408 C12.499,33.135 13.376,33.094 13.958,33.789 C13.958,33.607 13.958,33.472 13.958,33.326 C14.236,33.326 14.498,33.326 14.771,33.326 C14.771,34.642 14.771,35.949 14.771,37.270 C14.507,37.270 14.245,37.270 13.967,37.270 C13.967,37.137 13.967,37.001 13.967,36.868 C13.939,36.863 13.922,36.855 13.919,36.858 C13.290,37.676 11.846,37.525 11.211,36.542 C10.524,35.478 10.881,33.938 11.949,33.408 ZM12.124,36.307 C12.503,36.625 12.930,36.663 13.362,36.456 C13.824,36.234 13.991,35.810 14.003,35.385 C14.002,34.904 13.885,34.558 13.589,34.296 C13.119,33.880 12.378,33.950 11.983,34.443 C11.562,34.969 11.627,35.890 12.124,36.307 ZM16.817,36.569 C17.107,36.619 17.413,36.576 17.710,36.557 C17.788,36.553 17.871,36.502 17.938,36.452 C18.184,36.271 18.166,35.950 17.884,35.846 C17.615,35.749 17.323,35.723 17.044,35.652 C16.806,35.593 16.560,35.542 16.338,35.439 C15.495,35.044 15.615,33.919 16.204,33.542 C16.413,33.408 16.660,33.303 16.902,33.264 C17.525,33.160 18.135,33.237 18.708,33.540 C18.740,33.557 18.770,33.579 18.800,33.599 C18.815,33.608 18.830,33.620 18.855,33.639 C18.738,33.868 18.626,34.088 18.508,34.318 C18.109,34.105 17.700,33.967 17.259,33.993 C17.112,34.001 16.963,34.044 16.825,34.099 C16.672,34.160 16.590,34.297 16.598,34.471 C16.607,34.642 16.725,34.731 16.866,34.762 C17.171,34.829 17.481,34.872 17.786,34.938 C17.956,34.975 18.126,35.024 18.286,35.093 C18.640,35.246 18.892,35.502 18.940,35.922 C18.995,36.394 18.841,36.776 18.463,37.048 C18.112,37.301 17.710,37.377 17.298,37.384 C16.691,37.394 16.117,37.265 15.591,36.870 C15.722,36.645 15.842,36.435 15.946,36.257 C16.246,36.368 16.523,36.517 16.817,36.569 ZM20.283,32.123 C20.564,32.123 20.825,32.123 21.108,32.123 C21.108,32.514 21.108,32.901 21.108,33.307 C21.564,33.307 22.001,33.307 22.453,33.307 C22.453,33.580 22.453,33.834 22.453,34.104 C22.007,34.104 21.570,34.104 21.112,34.104 C21.112,34.283 21.112,34.445 21.112,34.607 C21.112,35.042 21.107,35.477 21.114,35.912 C21.123,36.435 21.393,36.658 21.880,36.545 C22.049,36.506 22.211,36.437 22.397,36.375 C22.434,36.479 22.475,36.594 22.513,36.708 C22.552,36.827 22.587,36.946 22.629,37.081 C22.258,37.323 21.854,37.423 21.426,37.376 C20.637,37.288 20.308,36.887 20.288,35.995 C20.276,35.440 20.285,34.885 20.284,34.331 C20.284,34.262 20.284,34.194 20.284,34.099 C20.018,34.099 19.779,34.099 19.530,34.099 C19.530,33.837 19.530,33.589 19.530,33.318 C19.777,33.318 20.020,33.318 20.283,33.318 C20.283,32.910 20.283,32.523 20.283,32.123 ZM24.191,33.421 C25.263,32.890 26.655,33.380 26.818,35.011 C26.837,35.207 26.820,35.408 26.820,35.628 C25.880,35.628 24.956,35.628 24.032,35.628 C24.046,36.152 24.470,36.567 24.996,36.604 C25.455,36.637 25.861,36.494 26.249,36.201 C26.382,36.410 26.509,36.611 26.647,36.828 C26.354,37.090 26.024,37.250 25.653,37.327 C25.188,37.424 24.731,37.412 24.289,37.224 C23.568,36.916 23.150,36.200 23.161,35.288 C23.170,34.466 23.451,33.788 24.191,33.421 ZM25.983,34.948 C25.870,34.259 25.472,33.923 24.881,33.992 C24.409,34.048 24.021,34.488 24.046,34.948 C24.687,34.948 25.328,34.948 25.983,34.948 ZM28.505,33.792 C28.719,33.506 28.933,33.311 29.229,33.254 C29.516,33.199 29.799,33.213 30.091,33.333 C30.008,33.600 29.929,33.855 29.848,34.118 C29.731,34.094 29.621,34.068 29.511,34.050 C28.918,33.952 28.530,34.297 28.520,34.954 C28.509,35.653 28.517,36.352 28.516,37.052 C28.516,37.120 28.516,37.189 28.516,37.270 C28.243,37.270 27.981,37.270 27.706,37.270 C27.706,35.963 27.706,34.656 27.706,33.325 C27.972,33.325 28.228,33.325 28.505,33.325 C28.505,33.463 28.505,33.597 28.505,33.792 ZM33.723,33.701 C33.601,33.918 33.477,34.138 33.364,34.340 C33.102,34.241 32.859,34.115 32.601,34.058 C31.840,33.889 31.109,34.450 31.210,35.450 C31.303,36.361 32.056,36.805 32.894,36.471 C33.044,36.411 33.184,36.323 33.347,36.238 C33.474,36.461 33.599,36.681 33.722,36.900 C33.026,37.592 31.616,37.537 30.906,36.799 C30.181,36.045 30.161,34.635 30.864,33.855 C31.570,33.073 32.966,32.991 33.723,33.701 ZM37.265,33.785 C37.265,33.604 37.265,33.469 37.265,33.325 C37.538,33.325 37.795,33.325 38.064,33.325 C38.064,34.639 38.064,35.948 38.064,37.270 C37.800,37.270 37.540,37.270 37.261,37.270 C37.261,37.129 37.261,36.994 37.261,36.892 C37.017,37.033 36.791,37.225 36.532,37.308 C35.471,37.647 34.343,36.855 34.191,35.695 C34.088,34.899 34.267,34.206 34.858,33.665 C35.411,33.158 36.537,32.957 37.265,33.785 ZM36.147,36.572 C36.816,36.577 37.297,36.059 37.301,35.328 C37.305,34.574 36.841,34.035 36.179,34.027 C35.495,34.018 35.010,34.542 35.005,35.295 C35.000,36.041 35.470,36.567 36.147,36.572 ZM39.972,33.733 C40.191,33.511 40.403,33.313 40.699,33.255 C40.987,33.198 41.271,33.216 41.566,33.330 C41.484,33.595 41.404,33.854 41.322,34.118 C41.192,34.091 41.076,34.062 40.959,34.044 C40.426,33.961 40.032,34.269 40.011,34.833 C39.983,35.538 39.994,36.244 39.989,36.950 C39.988,37.050 39.989,37.150 39.989,37.274 C39.709,37.274 39.453,37.274 39.186,37.274 C39.186,35.959 39.186,34.651 39.186,33.329 C39.441,33.329 39.696,33.329 39.972,33.329 C39.972,33.464 39.972,33.598 39.972,33.733 ZM44.923,33.785 C44.923,33.414 44.923,33.078 44.923,32.742 C44.923,32.409 44.923,32.077 44.923,31.732 C45.195,31.732 45.452,31.732 45.725,31.732 C45.725,33.574 45.725,35.416 45.725,37.274 C45.455,37.274 45.198,37.274 44.924,37.274 C44.924,37.130 44.924,36.995 44.924,36.890 C44.681,37.033 44.454,37.224 44.196,37.308 C43.126,37.649 41.996,36.846 41.850,35.679 C41.788,35.182 41.845,34.714 42.058,34.265 C42.593,33.141 44.141,32.849 44.923,33.785 ZM44.176,36.523 C44.734,36.346 45.073,35.691 44.944,35.036 C44.848,34.544 44.593,34.192 44.117,34.068 C43.327,33.862 42.667,34.432 42.669,35.306 C42.671,36.201 43.382,36.776 44.176,36.523 Z"/>
</symbol>
<symbol 
 width="65px" height="21px" id="visa-icon">
<path fill-rule="evenodd"  fill="rgb(23, 23, 23)"
 d="M64.523,20.444 C64.425,20.455 64.327,20.459 64.229,20.459 C63.009,20.462 61.789,20.466 60.569,20.463 C60.015,20.461 59.992,20.430 59.886,19.912 C59.756,19.271 59.617,18.631 59.473,17.994 C59.381,17.588 59.281,17.514 58.871,17.514 C56.965,17.513 55.058,17.520 53.152,17.508 C52.774,17.506 52.552,17.610 52.432,17.992 C52.225,18.647 51.961,19.283 51.726,19.929 C51.549,20.412 51.482,20.466 50.973,20.466 C49.568,20.467 48.162,20.467 46.757,20.465 C46.123,20.463 46.078,20.394 46.320,19.823 C47.586,16.834 48.851,13.845 50.120,10.858 C51.363,7.929 52.612,5.003 53.856,2.075 C54.299,1.031 55.083,0.504 56.236,0.495 C56.836,0.490 57.435,0.494 58.034,0.495 C58.720,0.495 59.407,0.491 60.093,0.496 C60.500,0.499 60.622,0.592 60.703,0.975 C61.054,2.643 61.397,4.313 61.751,5.981 C62.046,7.376 62.356,8.768 62.652,10.162 C62.936,11.495 63.208,12.829 63.489,14.161 C63.791,15.587 64.099,17.012 64.401,18.438 C64.521,19.005 64.632,19.574 64.752,20.140 C64.793,20.336 64.708,20.425 64.523,20.444 ZM58.271,12.301 C58.035,11.191 57.790,10.082 57.554,8.972 C57.401,8.249 57.262,7.523 57.106,6.800 C57.058,6.576 56.974,6.360 56.907,6.140 C56.881,6.138 56.856,6.137 56.830,6.136 C56.770,6.267 56.702,6.395 56.652,6.530 C56.083,8.070 55.518,9.611 54.952,11.152 C54.730,11.756 54.502,12.359 54.288,12.965 C54.216,13.170 54.185,13.400 54.512,13.403 C55.720,13.411 56.928,13.408 58.136,13.407 C58.343,13.407 58.435,13.289 58.407,13.093 C58.369,12.828 58.327,12.563 58.271,12.301 ZM46.424,4.831 C46.359,5.127 46.256,5.177 45.961,5.087 C45.276,4.878 44.599,4.619 43.897,4.488 C42.683,4.262 41.448,4.155 40.255,4.600 C39.911,4.729 39.576,4.951 39.311,5.206 C38.818,5.680 38.800,6.425 39.311,6.876 C39.808,7.314 40.373,7.695 40.953,8.023 C42.066,8.653 43.235,9.187 44.247,9.985 C46.087,11.435 46.630,13.239 46.083,15.500 C45.521,17.828 43.898,19.215 41.714,20.047 C40.243,20.609 38.704,20.802 37.007,20.818 C35.299,20.755 33.491,20.530 31.753,19.903 C31.506,19.813 31.363,19.685 31.425,19.403 C31.692,18.188 31.957,16.974 32.217,15.757 C32.280,15.464 32.428,15.425 32.686,15.549 C34.127,16.244 35.654,16.601 37.256,16.617 C38.209,16.627 39.154,16.552 39.989,16.015 C40.978,15.379 41.120,14.246 40.222,13.496 C39.656,13.024 38.989,12.653 38.329,12.311 C37.091,11.668 35.865,11.025 34.882,10.012 C33.957,9.058 33.430,7.928 33.481,6.617 C33.541,5.100 34.117,3.761 35.213,2.659 C36.315,1.551 37.672,0.902 39.169,0.510 C40.290,0.218 41.436,0.087 42.597,0.116 C44.054,0.153 45.471,0.420 46.855,0.870 C47.141,0.963 47.238,1.135 47.180,1.406 C46.968,2.381 46.751,3.354 46.535,4.328 C46.498,4.496 46.461,4.663 46.424,4.831 ZM31.434,3.370 C31.196,4.481 30.958,5.593 30.714,6.703 C30.487,7.739 30.250,8.774 30.021,9.809 C29.870,10.490 29.726,11.171 29.579,11.853 C29.348,12.933 29.119,14.013 28.887,15.092 C28.654,16.172 28.420,17.251 28.186,18.330 C28.052,18.948 27.914,19.565 27.781,20.182 C27.727,20.433 27.528,20.456 27.327,20.457 C26.598,20.462 25.868,20.459 25.138,20.459 C25.138,20.460 25.138,20.461 25.138,20.461 C24.419,20.461 23.699,20.468 22.981,20.459 C22.551,20.455 22.515,20.399 22.603,19.985 C23.022,18.025 23.438,16.064 23.860,14.103 C24.244,12.321 24.634,10.540 25.020,8.758 C25.415,6.935 25.805,5.111 26.202,3.288 C26.381,2.471 26.576,1.658 26.753,0.841 C26.802,0.618 26.910,0.498 27.147,0.498 C28.639,0.498 30.132,0.496 31.624,0.495 C31.916,0.495 32.007,0.647 31.951,0.915 C31.777,1.733 31.608,2.552 31.434,3.370 ZM22.226,5.967 C21.458,7.778 20.696,9.592 19.927,11.402 C19.187,13.143 18.439,14.880 17.695,16.621 C17.201,17.777 16.701,18.931 16.221,20.093 C16.113,20.356 15.947,20.462 15.680,20.462 C14.089,20.462 12.499,20.461 10.908,20.463 C10.659,20.463 10.503,20.374 10.437,20.117 C10.200,19.193 9.947,18.272 9.703,17.349 C9.330,15.940 8.959,14.529 8.589,13.118 C8.307,12.039 8.029,10.959 7.746,9.880 C7.370,8.449 6.994,7.018 6.614,5.588 C6.474,5.059 6.328,4.532 6.178,4.006 C6.021,3.457 5.652,3.077 5.154,2.811 C4.066,2.227 2.900,1.845 1.714,1.516 C1.232,1.382 0.744,1.271 0.266,1.126 C0.156,1.093 -0.018,0.926 -0.000,0.880 C0.054,0.741 0.171,0.611 0.293,0.514 C0.356,0.465 0.482,0.490 0.580,0.490 C3.358,0.490 6.137,0.486 8.915,0.493 C10.144,0.496 11.096,1.249 11.336,2.436 C11.682,4.149 11.996,5.868 12.329,7.583 C12.623,9.099 12.925,10.612 13.221,12.128 C13.311,12.590 13.388,13.055 13.475,13.518 C13.493,13.617 13.527,13.713 13.582,13.908 C13.699,13.739 13.779,13.659 13.818,13.563 C14.875,10.931 15.927,8.296 16.983,5.664 C17.632,4.048 18.287,2.436 18.935,0.821 C19.023,0.602 19.173,0.497 19.406,0.496 C20.964,0.495 22.522,0.491 24.080,0.497 C24.417,0.498 24.500,0.621 24.372,0.922 C23.660,2.605 22.940,4.285 22.226,5.967 Z"/>
</symbol>
</svg>